<mxfile host="app.diagrams.net" agent="Mozilla/5.0 (Windows NT 10.0; Win64; x64) AppleWebKit/537.36 (KHTML, like Gecko) Chrome/139.0.0.0 Safari/537.36 Edg/139.0.0.0" version="28.2.1">
  <diagram name="PÃ¡gina-1" id="aZhOI2Rf11P-X5zS5xGF">
    <mxGraphModel dx="1418" dy="866" grid="1" gridSize="10" guides="1" tooltips="1" connect="1" arrows="1" fold="1" page="1" pageScale="1" pageWidth="827" pageHeight="1169" math="0" shadow="0">
      <root>
        <mxCell id="0" />
        <mxCell id="1" parent="0" />
        <mxCell id="M8hkXP_kOSwks7LkfX3K-2" value="" style="rounded=1;whiteSpace=wrap;html=1;" vertex="1" parent="1">
          <mxGeometry x="70" y="180" width="860" height="120" as="geometry" />
        </mxCell>
        <mxCell id="M8hkXP_kOSwks7LkfX3K-6" value="INT" style="rounded=1;whiteSpace=wrap;html=1;" vertex="1" parent="1">
          <mxGeometry x="100" y="200" width="120" height="60" as="geometry" />
        </mxCell>
        <mxCell id="M8hkXP_kOSwks7LkfX3K-7" value="" style="rounded=1;whiteSpace=wrap;html=1;" vertex="1" parent="1">
          <mxGeometry x="60" y="410" width="650" height="140" as="geometry" />
        </mxCell>
        <mxCell id="M8hkXP_kOSwks7LkfX3K-17" style="edgeStyle=orthogonalEdgeStyle;rounded=0;orthogonalLoop=1;jettySize=auto;html=1;" edge="1" parent="1" source="M8hkXP_kOSwks7LkfX3K-8" target="M8hkXP_kOSwks7LkfX3K-9">
          <mxGeometry relative="1" as="geometry" />
        </mxCell>
        <mxCell id="M8hkXP_kOSwks7LkfX3K-28" value="Testado Candidate para PRD" style="edgeLabel;html=1;align=center;verticalAlign=middle;resizable=0;points=[];" vertex="1" connectable="0" parent="M8hkXP_kOSwks7LkfX3K-17">
          <mxGeometry x="0.6247" y="-1" relative="1" as="geometry">
            <mxPoint as="offset" />
          </mxGeometry>
        </mxCell>
        <mxCell id="M8hkXP_kOSwks7LkfX3K-8" value="feature_US" style="rounded=0;whiteSpace=wrap;html=1;" vertex="1" parent="1">
          <mxGeometry x="90" y="450" width="120" height="60" as="geometry" />
        </mxCell>
        <mxCell id="M8hkXP_kOSwks7LkfX3K-22" style="edgeStyle=orthogonalEdgeStyle;rounded=0;orthogonalLoop=1;jettySize=auto;html=1;" edge="1" parent="1" source="M8hkXP_kOSwks7LkfX3K-9" target="M8hkXP_kOSwks7LkfX3K-12">
          <mxGeometry relative="1" as="geometry" />
        </mxCell>
        <mxCell id="M8hkXP_kOSwks7LkfX3K-25" style="edgeStyle=orthogonalEdgeStyle;rounded=0;orthogonalLoop=1;jettySize=auto;html=1;" edge="1" parent="1" source="M8hkXP_kOSwks7LkfX3K-9" target="M8hkXP_kOSwks7LkfX3K-21">
          <mxGeometry relative="1" as="geometry" />
        </mxCell>
        <mxCell id="M8hkXP_kOSwks7LkfX3K-9" value="Release/Release_X.X.X" style="rounded=1;whiteSpace=wrap;html=1;" vertex="1" parent="1">
          <mxGeometry x="290" y="200" width="210" height="60" as="geometry" />
        </mxCell>
        <mxCell id="M8hkXP_kOSwks7LkfX3K-10" style="edgeStyle=orthogonalEdgeStyle;rounded=0;orthogonalLoop=1;jettySize=auto;html=1;entryX=0.367;entryY=0.94;entryDx=0;entryDy=0;entryPerimeter=0;" edge="1" parent="1" source="M8hkXP_kOSwks7LkfX3K-8" target="M8hkXP_kOSwks7LkfX3K-6">
          <mxGeometry relative="1" as="geometry" />
        </mxCell>
        <mxCell id="M8hkXP_kOSwks7LkfX3K-32" value="Testado pelos BAs" style="edgeLabel;html=1;align=center;verticalAlign=middle;resizable=0;points=[];" vertex="1" connectable="0" parent="M8hkXP_kOSwks7LkfX3K-10">
          <mxGeometry x="0.002" y="5" relative="1" as="geometry">
            <mxPoint as="offset" />
          </mxGeometry>
        </mxCell>
        <mxCell id="M8hkXP_kOSwks7LkfX3K-27" style="edgeStyle=orthogonalEdgeStyle;rounded=0;orthogonalLoop=1;jettySize=auto;html=1;entryX=0.5;entryY=1;entryDx=0;entryDy=0;" edge="1" parent="1" source="M8hkXP_kOSwks7LkfX3K-12" target="M8hkXP_kOSwks7LkfX3K-26">
          <mxGeometry relative="1" as="geometry" />
        </mxCell>
        <mxCell id="M8hkXP_kOSwks7LkfX3K-12" value="PROD" style="rounded=1;whiteSpace=wrap;html=1;" vertex="1" parent="1">
          <mxGeometry x="580" y="200" width="120" height="60" as="geometry" />
        </mxCell>
        <mxCell id="M8hkXP_kOSwks7LkfX3K-16" style="edgeStyle=orthogonalEdgeStyle;rounded=0;orthogonalLoop=1;jettySize=auto;html=1;" edge="1" parent="1" source="M8hkXP_kOSwks7LkfX3K-15" target="M8hkXP_kOSwks7LkfX3K-8">
          <mxGeometry relative="1" as="geometry" />
        </mxCell>
        <mxCell id="M8hkXP_kOSwks7LkfX3K-33" style="edgeStyle=orthogonalEdgeStyle;rounded=0;orthogonalLoop=1;jettySize=auto;html=1;entryX=0.75;entryY=1;entryDx=0;entryDy=0;" edge="1" parent="1" source="M8hkXP_kOSwks7LkfX3K-15" target="M8hkXP_kOSwks7LkfX3K-9">
          <mxGeometry relative="1" as="geometry" />
        </mxCell>
        <mxCell id="M8hkXP_kOSwks7LkfX3K-15" value="Master" style="rounded=0;whiteSpace=wrap;html=1;" vertex="1" parent="1">
          <mxGeometry x="60" y="660" width="180" height="60" as="geometry" />
        </mxCell>
        <mxCell id="M8hkXP_kOSwks7LkfX3K-18" value="Firebase INT" style="shape=process;whiteSpace=wrap;html=1;backgroundOutline=1;" vertex="1" parent="1">
          <mxGeometry x="90" y="20" width="120" height="60" as="geometry" />
        </mxCell>
        <mxCell id="M8hkXP_kOSwks7LkfX3K-19" value="Master" style="rounded=0;whiteSpace=wrap;html=1;" vertex="1" parent="1">
          <mxGeometry x="710" y="650" width="180" height="60" as="geometry" />
        </mxCell>
        <mxCell id="M8hkXP_kOSwks7LkfX3K-21" value="Firebase QUA" style="shape=process;whiteSpace=wrap;html=1;backgroundOutline=1;" vertex="1" parent="1">
          <mxGeometry x="335" y="20" width="120" height="60" as="geometry" />
        </mxCell>
        <mxCell id="M8hkXP_kOSwks7LkfX3K-24" style="edgeStyle=orthogonalEdgeStyle;rounded=0;orthogonalLoop=1;jettySize=auto;html=1;entryX=0.558;entryY=1;entryDx=0;entryDy=0;entryPerimeter=0;" edge="1" parent="1" source="M8hkXP_kOSwks7LkfX3K-6" target="M8hkXP_kOSwks7LkfX3K-18">
          <mxGeometry relative="1" as="geometry" />
        </mxCell>
        <mxCell id="M8hkXP_kOSwks7LkfX3K-26" value="Firebase PRD" style="shape=process;whiteSpace=wrap;html=1;backgroundOutline=1;" vertex="1" parent="1">
          <mxGeometry x="580" y="20" width="120" height="60" as="geometry" />
        </mxCell>
        <mxCell id="M8hkXP_kOSwks7LkfX3K-30" style="edgeStyle=orthogonalEdgeStyle;rounded=0;orthogonalLoop=1;jettySize=auto;html=1;entryX=0.5;entryY=0;entryDx=0;entryDy=0;" edge="1" parent="1" source="M8hkXP_kOSwks7LkfX3K-12" target="M8hkXP_kOSwks7LkfX3K-19">
          <mxGeometry relative="1" as="geometry">
            <mxPoint x="800" y="260" as="sourcePoint" />
          </mxGeometry>
        </mxCell>
      </root>
    </mxGraphModel>
  </diagram>
</mxfile>
